<?xml version="1.0" encoding="UTF-8"?>
<svg id="Layer_2" xmlns="http://www.w3.org/2000/svg" version="1.1" viewBox="0 0 1500 423.82">
  <!-- Generator: Adobe Illustrator 29.4.0, SVG Export Plug-In . SVG Version: 2.1.0 Build 152)  -->
  <g id="Layer_1-2">
    <g>
      <path d="M919.55,296.25h0c0-46.58,37.76-84.34,84.34-84.34h0c-46.58,0-84.34-37.76-84.34-84.34h0c0,46.58-37.76,84.34-84.34,84.34h0c46.58,0,84.34,37.76,84.34,84.34h0Z" style="fill: #b60d0a;"/>
      <path d="M0,412.86v-6.09l10.96-4.27c8.12-3.24,13.7-7.31,16.74-12.18,3.05-4.87,4.57-11.36,4.57-19.49V52.98c0-8.53-1.52-15.22-4.57-20.09-3.04-4.87-8.63-8.73-16.74-11.57L0,17.05v-6.09h174.77c49.52,0,85.25,9.04,107.17,27.1,21.92,18.07,32.88,40.9,32.88,68.5,0,20.7-8.02,39.49-24.06,56.33-16.04,16.85-43.54,28.73-82.51,35.62,44.65,4.87,77.34,16.55,98.04,35.01,20.7,18.48,31.05,40.91,31.05,67.29,0,13-2.85,26.09-8.53,39.28-5.69,13.19-15.32,25.27-28.92,36.23-13.6,10.96-32.18,19.79-55.72,26.49-23.55,6.7-53.39,10.05-89.52,10.05H0ZM122.4,197.9h26.18c27.19,0,46.78-6.29,58.76-18.87,11.97-12.58,17.96-34.5,17.96-65.77s-5.48-55.61-16.44-69.42c-10.96-13.8-28.83-20.7-53.59-20.7h-32.88v174.76h.01ZM122.4,400.68h30.45c30.45,0,53.07-8.12,67.9-24.36,14.81-16.23,22.23-41.61,22.23-76.12,0-32.47-7.11-55.61-21.32-69.42-14.22-13.8-37.55-20.7-70.03-20.7h-29.23v190.6h0Z" style="fill: #b60d0a;"/>
      <path d="M361.65,412.86v-6.09l10.96-4.27c8.12-3.24,13.7-7.31,16.74-12.18,3.05-4.87,4.57-11.36,4.57-19.49V52.98c0-8.53-1.52-15.22-4.57-20.09-3.04-4.87-8.63-8.73-16.74-11.57l-10.96-4.26v-6.09h174.77c49.52,0,85.25,9.04,107.17,27.1,21.92,18.07,32.88,40.9,32.88,68.5,0,20.7-8.02,39.49-24.06,56.33-16.04,16.85-43.54,28.73-82.51,35.62,44.65,4.87,77.34,16.55,98.04,35.01,20.7,18.48,31.05,40.91,31.05,67.29,0,13-2.85,26.09-8.53,39.28-5.69,13.19-15.32,25.27-28.92,36.23-13.6,10.96-32.18,19.79-55.72,26.49-23.55,6.7-53.39,10.05-89.52,10.05h-154.67l.0201-.01ZM484.05,197.9h26.18c27.19,0,46.78-6.29,58.76-18.87,11.97-12.58,17.96-34.5,17.96-65.77s-5.48-55.61-16.44-69.42c-10.96-13.8-28.83-20.7-53.59-20.7h-32.88v174.76h.01ZM484.05,400.68h30.45c30.45,0,53.07-8.12,67.9-24.36,14.81-16.23,22.23-41.61,22.23-76.12,0-32.47-7.11-55.61-21.32-69.42-14.22-13.8-37.55-20.7-70.03-20.7h-29.23v190.6h0Z" style="fill: #b60d0a;"/>
      <path d="M919.56,423.82c-24.77,0-48.62-4.47-71.55-13.4-22.94-8.92-43.45-22.23-61.5-39.88-18.07-17.66-32.38-39.68-42.93-66.07-10.56-26.38-15.83-57.24-15.83-92.56s5.27-65.56,15.83-91.95c10.55-26.38,24.97-48.41,43.24-66.07,18.27-17.66,38.86-31.06,61.81-40.19C871.56,4.56,895.22,0,919.57,0s48.61,4.36,71.55,13.09c22.93,8.73,43.4301,21.92,61.5,39.58,18.0601,17.66,32.37,39.79,42.9301,66.37,10.55,26.6,15.83,57.55,15.83,92.86s-5.28,65.06-15.83,91.65c-10.5601,26.59-24.87,48.72-42.9301,66.37-18.0699,17.66-38.57,31.06-61.5,40.19-22.94,9.14-46.79,13.7-71.55,13.7l-.01.01ZM919.56,411.03c22.32,0,40.39-5.98,54.19-17.96,13.8-11.97,23.84-32.47,30.14-61.5,6.29-29.02,9.44-68.91,9.44-119.66s-3.15-91.24-9.44-120.26c-6.3-29.02-16.35-49.53-30.14-61.51-13.81-11.97-31.87-17.96-54.19-17.96s-39.79,5.99-53.59,17.96c-13.81,11.98-23.86,32.48-30.15,61.51-6.3,29.03-9.44,69.11-9.44,120.26s3.14,90.64,9.44,119.66c6.29,29.03,16.34,49.53,30.15,61.5,13.8,11.98,31.66,17.96,53.59,17.96Z" style="fill: #b60d0a;"/>
      <path d="M1137.0699,412.86v-6.09l12.79-4.27c8.12-2.83,13.4-6.59,15.83-11.26,2.4399-4.66,3.65-11.27,3.65-19.79V52.98c0-8.12-1.13-14.51-3.35-19.18-2.23-4.66-7.21-8.42-14.91-11.27l-14.01-5.48v-6.09h174.16c47.9,0,84.65,9.04,110.22,27.1,25.58,18.07,38.36,43.14,38.36,75.2,0,17.87-6.7,35.73-20.09,53.59-13.4,17.87-34.51,31.66-63.33,41.41l84.64,168.07c3.65,6.91,7.8199,12.48,12.48,16.74,4.66,4.27,10.86,8.02,18.5699,11.27l7.91,3.04v5.48h-109l-90.12-191.82h-41.41v150.41c0,7.72,1.22,14,3.65,18.87,2.4399,4.87,7.5,8.53,15.22,10.96l14.61,5.48v6.09h-155.89l.02.01ZM1259.47,208.86h29.23c29.23,0,50.33-7.81,63.33-23.44,12.99-15.62,19.49-38.87,19.49-69.73s-6.09-54.5-18.27-69.73c-12.1801-15.22-32.6899-22.83-61.51-22.83h-32.27v185.73Z" style="fill: #b60d0a;"/>
    </g>
  </g>
</svg>